<svg xmlns="http://www.w3.org/2000/svg" xmlns:xlink="http://www.w3.org/1999/xlink" width="24" height="24" viewBox="0 0 24 24"><defs><path id="uu52a" d="M1361 117h-18v-3.08c0-1.66 1.73-3.1 4.3-3.92a5.91 5.91 0 0 0 4.7 2.38c1.92 0 3.6-.94 4.7-2.38 2.57.81 4.3 2.26 4.3 3.92zm-12-14.86a3.07 3.07 0 0 1 3-3.14c1.66 0 3 1.4 3 3.14v4.72a3.07 3.07 0 0 1-3 3.14c-1.66 0-3-1.4-3-3.14zm8.9 5.36c.05-.32.1-.66.1-1V102a6 6 0 0 0-12 0v4.5c0 .34.05.68.1 1-3.63 1.3-6.1 3.7-6.1 6.5v4.5c0 .83.67 1.5 1.5 1.5h21c.83 0 1.5-.67 1.5-1.5V114c0-2.8-2.47-5.2-6.1-6.5z"/></defs><g><g transform="translate(-1340 -96)"><g><g><use fill="#c5c5da" xlink:href="#uu52a"/></g></g></g></g></svg>