<svg xmlns="http://www.w3.org/2000/svg" xmlns:xlink="http://www.w3.org/1999/xlink" width="33" height="33" viewBox="0 0 33 42"><defs><path id="5xrja" d="M1287 110V84h26v26zm13-3a10 10 0 1 0 0-20 10 10 0 0 0 0 20z"/><path id="5xrjb" d="M1291.25 112.5h-3l-3.75 2.25v-2.66a6.73 6.73 0 0 1 2.25-13.09h4.5a6.75 6.75 0 1 1 0 13.5zm0-16.5h-4.5a9.72 9.72 0 1 0-5.15 18h-.1v6l6.75-4.5h3a9.75 9.75 0 0 0 0-19.5z"/><path id="5xrjc" d="M1290 97a10 10 0 1 1 20 0 10 10 0 0 1-20 0z"/><clipPath id="5xrjd"><use fill="#fff" xlink:href="#5xrja"/></clipPath></defs><g><g transform="translate(-1277 -87)"><g><g><use fill="#c5c5da" xlink:href="#5xrjb"/></g></g><g><use fill="#f3333e" xlink:href="#5xrjc"/><use fill="#fff" fill-opacity="0" stroke="#fff" stroke-miterlimit="50" stroke-width="6" clip-path="url(&quot;#5xrjd&quot;)" xlink:href="#5xrjc"/></g><g><g fill="#fff" font-family="DINBold" font-size="12"><text dominant-baseline="text-before-edge" font-family="Helvetica, Arial, sans-serif" transform="translate(1294 89)"><tspan>12</tspan></text></g></g></g></g></svg>