<svg xmlns="http://www.w3.org/2000/svg" xmlns:xlink="http://www.w3.org/1999/xlink" width="23.94" height="23.91" viewBox="0 0 23.94 23.91"><defs><path id="o6a3a" d="M1425.95 102.72c.19-2.05-1.67-3.73-3.73-3.73-3.87 0-3.74 2.98-3.74 2.98a1.5 1.5 0 1 1-2.98 0s.13-2.98-3.73-2.98c-2.07 0-3.92 1.68-3.74 3.73.08.84-.05 1.62.02 2.24h-.02c.1-.02-.51 4.4 8.94 11.16h.04c9.45-6.76 8.85-11.18 8.94-11.16h-.02c.07-.62-.06-1.4.02-2.24zm3 2.24c0 6.63-11.95 14.95-11.95 14.95s-11.96-8.32-11.96-14.95c-.01-.66.06-1.4 0-2.24-.24-3.7 3.01-6.72 6.73-6.72 2.12 0 4 1.45 5.23 2.99 1.23-1.54 3.1-2.99 5.23-2.99 3.7 0 6.97 3.02 6.72 6.72-.06.84.01 1.58 0 2.24z"/></defs><g><g transform="translate(-1405.03 -96)"><g><g><use fill="#c5c5da" xlink:href="#o6a3a"/></g></g></g></g></svg>