<svg xmlns="http://www.w3.org/2000/svg" xmlns:xlink="http://www.w3.org/1999/xlink" width="31.7" height="32.2" viewBox="0 0 31.7 32.2"><defs><path id="ke99a" d="M162.6 124.4l-11.1-15c-.1-.1-.1-.2-.2-.3-.4-.5-.9-1.2-.9-1.7s.3-1 .9-1.7l-.2-.1-5.1 5.7-.1.1 9.7 13.3c.4.5.5.8.5 1.3 0 .3-.3.7-.8.7h-1.9v.3h13.3v-.6h-1.2c-1.4.1-1.9-.5-2.9-2z"/><path id="ke99b" d="M144.9 125.3V94.8h-9.7v.6h2.3c.7 0 .9.3.9 1v29c0 .7-.2 1-.9 1H135v.6h13.4v-.6h-2.5c-.8.1-1-.2-1-1.1z"/><path id="ke99c" d="M159.2 96.5c0 .6-.3 1-1.2 2l-.1.1.1.2c2-2.3 3.4-3.4 6.2-3.4h1.3v-.6h-9.8v.6h1.3c1.5 0 2.2.4 2.2 1.1z"/></defs><g><g transform="translate(-135 -94.8)"><g><use fill="#f3333e" xlink:href="#ke99a"/></g><g><use fill="#f3333e" xlink:href="#ke99b"/></g><g><use fill="#f3333e" xlink:href="#ke99c"/></g></g></g></svg>